<?xml version="1.0" encoding="UTF-8" standalone="no"?>
<!-- Created with Inkscape (http://www.inkscape.org/) -->

<svg
   width="512"
   height="256"
   viewBox="0 0 135.46666 67.733335"
   version="1.1"
   id="svg31535"
   inkscape:version="1.1.2 (b8e25be833, 2022-02-05)"
   sodipodi:docname="dvdlogo.svg"
   inkscape:export-filename="C:\Users\Grandkids\Documents\blender\kilsonx\dvdlogo.png"
   inkscape:export-xdpi="96"
   inkscape:export-ydpi="96"
   xmlns:inkscape="http://www.inkscape.org/namespaces/inkscape"
   xmlns:sodipodi="http://sodipodi.sourceforge.net/DTD/sodipodi-0.dtd"
   xmlns="http://www.w3.org/2000/svg"
   xmlns:svg="http://www.w3.org/2000/svg">
  <sodipodi:namedview
     id="namedview31537"
     pagecolor="#ffffff"
     bordercolor="#666666"
     borderopacity="1.0"
     inkscape:pageshadow="2"
     inkscape:pageopacity="0.0"
     inkscape:pagecheckerboard="0"
     inkscape:document-units="mm"
     showgrid="true"
     inkscape:zoom="0.72757775"
     inkscape:cx="235.46495"
     inkscape:cy="251.67354"
     inkscape:window-width="1366"
     inkscape:window-height="745"
     inkscape:window-x="-8"
     inkscape:window-y="-8"
     inkscape:window-maximized="1"
     inkscape:current-layer="layer1"
     units="px"
     inkscape:snap-nodes="false"
     height="256px">
    <inkscape:grid
       type="xygrid"
       id="grid31562"
       spacingx="0.52916666"
       spacingy="0.52916666"
       empspacing="16" />
  </sodipodi:namedview>
  <defs
     id="defs31532" />
  <g
     inkscape:label="Layer 1"
     inkscape:groupmode="layer"
     id="layer1">
    <g
       aria-label="KILSON
X"
       id="text32314"
       style="font-size:10.5833px;text-align:center;text-anchor:middle;stroke-width:0.264583"
       transform="matrix(4.3265632,0,0,3.2269695,-29.567596,-41.277231)">
      <path
         d="m 15.556315,15.491841 -0.99136,4.433895 0.60369,3.418393 h 0.978451 V 25.31192 H 13.86154 l -0.6993,-4.209472 v 4.209472 h -1.731798 v -9.820079 h 1.731798 v 3.815212 l 0.769231,-3.815212 z"
         style="-inkscape-font-specification:Impact;stroke-width:0.255747"
         id="path38805"
         sodipodi:nodetypes="cccccccccccccc"
         inkscape:original-d="m 15.556315,15.491841 -0.99136,4.433895 0.60369,3.418393 h 0.978451 V 25.31192 H 13.86154 l -0.6993,-4.209472 v 4.209472 h -1.731798 v -9.820079 h 1.731798 v 3.815212 l 0.769231,-3.815212 z" />
      <path
         d="M 17.683012,15.491841 V 25.31192 H 15.951214 V 15.491841 Z"
         style="-inkscape-font-specification:Impact;stroke-width:0.255747"
         id="path38807"
         inkscape:original-d="M 17.683012,15.491841 V 25.31192 H 15.951214 V 15.491841 Z" />
      <path
         d="m 19.85138,15.472808 v 7.85485 h 1.053063 v 1.965229 h -2.784861 v -9.820079 z"
         style="-inkscape-font-specification:Impact;stroke-width:0.255747"
         id="path38809"
         inkscape:original-d="m 19.85138,15.472808 v 7.85485 h 1.053063 v 1.965229 h -2.784861 v -9.820079 z" />
      <path
         d="m 24.659877,18.448746 h -1.608392 v -0.727863 c 0,-0.339669 -0.02057,-0.556006 -0.0617,-0.649011 -0.04113,-0.093 -0.109692,-0.139506 -0.205677,-0.139506 -0.104209,0 -0.183738,0.06268 -0.238585,0.188031 -0.0521,0.125355 -0.07815,0.315408 -0.07815,0.570159 0,0.327538 0.03016,0.574202 0.09049,0.739993 0.05759,0.165791 0.220757,0.365954 0.48951,0.600488 0.770602,0.675295 1.255999,1.229279 1.456192,1.661952 0.200191,0.432674 0.300287,1.130209 0.300287,2.092606 0,0.699556 0.0021,1.178518 -0.110343,1.5101 -0.109694,0.331583 -0.323598,0.610597 -0.641712,0.837042 -0.489226,0.163983 -0.669256,0.139232 -1.091579,0.139232 -0.463458,0 -1.843777,0.02475 -2.333002,0.02475 -0.611533,-0.983891 -0.122307,-1.967795 -0.0137,-1.967869 0.538858,0.01052 2.21617,-0.0021 2.500806,-0.002 0,-0.578246 -0.0094,-1.236795 -0.116326,-1.414718 C 22.888301,21.734211 22.618179,21.437 22.18763,21.020501 21.75708,20.599958 21.471875,20.29466 21.332015,20.104607 c -0.13986,-0.190053 -0.25641,-0.452892 -0.34965,-0.788517 -0.0905,-0.335625 -0.135747,-0.764256 -0.135747,-1.285891 0,-0.752125 0.06444,-1.302065 0.193336,-1.649821 0.131633,-0.347757 0.342795,-0.618683 0.633484,-0.81278 0.29069,-0.198141 0.641712,-0.297211 1.053065,-0.297211 0.449746,0 0.832304,0.107157 1.147675,0.321472 0.318113,0.214315 0.527903,0.485242 0.629372,0.81278 0.104209,0.323495 0.156313,0.875457 0.156313,1.655888 z"
         style="-inkscape-font-specification:Impact;stroke-width:0.255747"
         id="path38811"
         sodipodi:nodetypes="ccssscsccssccscccccscsccscccc"
         inkscape:original-d="m 24.659877,18.448746 h -1.608392 v -0.727863 c 0,-0.339669 -0.02057,-0.556006 -0.0617,-0.649011 -0.04113,-0.093 -0.109692,-0.139506 -0.205677,-0.139506 -0.104209,0 -0.183738,0.06268 -0.238585,0.188031 -0.0521,0.125355 -0.07815,0.315408 -0.07815,0.570159 0,0.327538 0.03016,0.574202 0.09049,0.739993 0.05759,0.165791 0.220757,0.365954 0.48951,0.600488 0.770602,0.675295 1.255999,1.229279 1.456192,1.661952 0.200191,0.432674 0.300287,1.130209 0.300287,2.092606 0,0.699556 0.0021,1.178518 -0.110343,1.5101 -0.109694,0.331583 -0.323598,0.610597 -0.641712,0.837042 -0.489226,0.163983 -0.669256,0.139232 -1.091579,0.139232 -0.463458,0 -1.843777,0.02475 -2.333002,0.02475 -0.611533,-0.983891 -0.122307,-1.967795 -0.0137,-1.967869 0.538858,0.01052 2.21617,-0.0021 2.500806,-0.002 0,-0.578246 -0.0094,-1.236795 -0.116326,-1.414718 C 22.888301,21.734211 22.618179,21.437 22.18763,21.020501 21.75708,20.599958 21.471875,20.29466 21.332015,20.104607 c -0.13986,-0.190053 -0.25641,-0.452892 -0.34965,-0.788517 -0.0905,-0.335625 -0.135747,-0.764256 -0.135747,-1.285891 0,-0.752125 0.06444,-1.302065 0.193336,-1.649821 0.131633,-0.347757 0.342795,-0.618683 0.633484,-0.81278 0.29069,-0.198141 0.641712,-0.297211 1.053065,-0.297211 0.449746,0 0.832304,0.107157 1.147675,0.321472 0.318113,0.214315 0.527903,0.485242 0.629372,0.81278 0.104209,0.323495 0.156313,0.875457 0.156313,1.655888 z" />
      <path
         d="m 29.043948,21.256921 q 0,1.479988 -0.04936,2.098671 -0.04524,0.612619 -0.296174,1.122121 -0.246813,0.509505 -0.670506,0.782453 -0.423694,0.272948 -0.987248,0.272948 -0.534759,0 -0.962567,-0.254751 -0.423693,-0.260818 -0.682846,-0.776387 -0.259153,-0.51557 -0.308515,-1.122121 -0.04936,-0.606552 -0.04936,-2.122934 v -1.680149 q 0,-1.479986 0.04524,-2.092604 0.04936,-0.618683 0.296175,-1.128187 0.250925,-0.509505 0.674619,-0.782453 0.423693,-0.272948 0.987248,-0.272948 0.534758,0 0.958453,0.260818 0.427807,0.254751 0.68696,0.77032 0.259152,0.51557 0.308514,1.122122 0.04936,0.606552 0.04936,2.122932 z m -1.731797,-3.226856 q 0,-0.685404 -0.05348,-0.873435 -0.04936,-0.194097 -0.20979,-0.194097 -0.135745,0 -0.20979,0.157704 -0.06993,0.151638 -0.06993,0.909828 v 4.585534 q 0,0.855238 0.04524,1.0554 0.04936,0.200163 0.22213,0.200163 0.176881,0 0.226244,-0.23049 0.04936,-0.230489 0.04936,-1.09786 z"
         style="-inkscape-font-specification:Impact;stroke-width:0.255747"
         id="path38813"
         inkscape:original-d="m 29.043948,21.256921 q 0,1.479988 -0.04936,2.098671 -0.04524,0.612619 -0.296174,1.122121 -0.246813,0.509505 -0.670506,0.782453 -0.423694,0.272948 -0.987248,0.272948 -0.534759,0 -0.962567,-0.254751 -0.423693,-0.260818 -0.682846,-0.776387 -0.259153,-0.51557 -0.308515,-1.122121 -0.04936,-0.606552 -0.04936,-2.122934 v -1.680149 q 0,-1.479986 0.04524,-2.092604 0.04936,-0.618683 0.296175,-1.128187 0.250925,-0.509505 0.674619,-0.782453 0.423693,-0.272948 0.987248,-0.272948 0.534758,0 0.958453,0.260818 0.427807,0.254751 0.68696,0.77032 0.259152,0.51557 0.308514,1.122122 0.04936,0.606552 0.04936,2.122932 z m -1.731797,-3.226856 q 0,-0.685404 -0.05348,-0.873435 -0.04936,-0.194097 -0.20979,-0.194097 -0.135745,0 -0.20979,0.157704 -0.06993,0.151638 -0.06993,0.909828 v 4.585534 q 0,0.855238 0.04524,1.0554 0.04936,0.200163 0.22213,0.200163 0.176881,0 0.226244,-0.23049 0.04936,-0.230489 0.04936,-1.09786 z" />
      <path
         d="m 33.188132,15.488385 v 9.820079 H 31.670239 L 30.769376,20.84424 v 4.464224 h -1.447964 l -0.0018,-1.964577 0.0018,-7.855502 h 1.447964 l 0.970793,4.421765 v -4.421765 z"
         style="-inkscape-font-specification:Impact;stroke-width:0.255747"
         id="path38815"
         sodipodi:nodetypes="cccccccccccc"
         inkscape:original-d="m 33.188132,15.488385 v 9.820079 H 31.670239 L 30.769376,20.84424 v 4.464224 h -1.447964 l -0.0018,-1.964577 0.0018,-7.855502 h 1.447964 l 0.970793,4.421765 v -4.421765 z" />
      <path
         d="m 34.945237,26.269017 -6.490408,2.635319 6.490408,2.612122 -6.490408,0.0116 -5.87071,-1.31186 -5.87071,1.31186 -6.518586,0.01276 6.518586,-2.636477 -6.356762,-2.610964 6.356762,-0.01276 5.87071,1.475843 5.87071,-1.475843 z"
         style="-inkscape-font-specification:Impact"
         id="path38817"
         sodipodi:nodetypes="ccccccccccccc"
         inkscape:original-d="m 34.945237,26.269017 -6.490408,2.635319 6.490408,2.612122 -6.490408,0.0116 -5.87071,-1.31186 -5.87071,1.31186 -6.518586,0.01276 6.518586,-2.636477 -6.356762,-2.610964 6.356762,-0.01276 5.87071,1.475843 5.87071,-1.475843 z" />
    </g>
  </g>
</svg>
